<?xml version="1.0" encoding="UTF-8" standalone="no"?>
<!-- Created with Inkscape (http://www.inkscape.org/) -->

<svg
   xmlns:osb="http://www.openswatchbook.org/uri/2009/osb"
   xmlns:dc="http://purl.org/dc/elements/1.1/"
   xmlns:cc="http://creativecommons.org/ns#"
   xmlns:rdf="http://www.w3.org/1999/02/22-rdf-syntax-ns#"
   xmlns:svg="http://www.w3.org/2000/svg"
   xmlns="http://www.w3.org/2000/svg"
   xmlns:sodipodi="http://sodipodi.sourceforge.net/DTD/sodipodi-0.dtd"
   xmlns:inkscape="http://www.inkscape.org/namespaces/inkscape"
   width="744.09448819"
   height="1052.3622047"
   id="svg2"
   version="1.1"
   inkscape:version="0.48.5 r10040"
   sodipodi:docname="drawing.svg">
  <sodipodi:namedview
     id="base"
     pagecolor="#ffffff"
     bordercolor="#666666"
     borderopacity="1.0"
     inkscape:pageopacity="0.0"
     inkscape:pageshadow="2"
     inkscape:zoom="0.631608"
     inkscape:cx="371.04173"
     inkscape:cy="703.14516"
     inkscape:document-units="px"
     inkscape:current-layer="layer1"
     showgrid="false"
     inkscape:snap-global="false"
     inkscape:snap-midpoints="true"
     inkscape:snap-bbox="false"
     inkscape:snap-bbox-edge-midpoints="false"
     inkscape:object-paths="true"
     inkscape:snap-intersection-paths="true"
     inkscape:snap-nodes="false"
     inkscape:object-nodes="true"
     inkscape:snap-smooth-nodes="true"
     inkscape:window-width="1366"
     inkscape:window-height="668"
     inkscape:window-x="0"
     inkscape:window-y="28"
     inkscape:window-maximized="1">
    <inkscape:grid
       id="grid3755"
       type="xygrid"
       empspacing="5"
       visible="true"
       enabled="true"
       snapvisiblegridlinesonly="true" />
  </sodipodi:namedview>
  <defs
     id="defs4">
    <linearGradient
       id="linearGradient7878"
       osb:paint="solid">
      <stop
         style="stop-color:#000000;stop-opacity:1;"
         offset="0"
         id="stop7880" />
    </linearGradient>
  </defs>
  <metadata
     id="metadata7">
    <rdf:RDF>
      <cc:Work
         rdf:about="">
        <dc:format>image/svg+xml</dc:format>
        <dc:type
           rdf:resource="http://purl.org/dc/dcmitype/StillImage" />
        <dc:title></dc:title>
      </cc:Work>
    </rdf:RDF>
  </metadata>
  <g
     id="layer1"
     inkscape:groupmode="layer"
     inkscape:label="Layer 1">
    <path
       style="fill:#f2f2f2;fill-opacity:1;stroke:none"
       d="m 511.54362,351.3163 c 0,95.39951 -85.116,172.73608 -190.1119,172.73608 -104.9959,0 -190.1119,-77.33657 -190.1119,-172.73608 0,-95.3995 85.116,-172.73608 190.1119,-172.73608 104.9959,0 190.1119,77.33658 190.1119,172.73608 z"
       id="path7964"
       inkscape:connector-curvature="0"
       inkscape:export-filename="/home/thoniorf/Documents/Projects/Frategp2-pages/assets/drawing2303171.jpg.png"
       inkscape:export-xdpi="90"
       inkscape:export-ydpi="90" />
    <flowRoot
       style="fill:black;stroke:none;stroke-opacity:1;stroke-width:1px;stroke-linejoin:miter;stroke-linecap:butt;fill-opacity:1;font-family:Sports World;font-style:normal;font-weight:normal;font-size:56px;line-height:125%;letter-spacing:0px;word-spacing:0px;-inkscape-font-specification:Sports World;font-stretch:normal;font-variant:normal"
       id="flowRoot5851"
       xml:space="preserve"><flowRegion
         id="flowRegion5853"><rect
           y="240.93361"
           x="-230"
           height="185.71428"
           width="1070"
           id="rect5855" /></flowRegion><flowPara
         id="flowPara5857" /></flowRoot>    <path
       sodipodi:type="arc"
       style="fill:#000000;fill-opacity:0;stroke:none"
       id="path7907"
       sodipodi:cx="325"
       sodipodi:cy="150.21933"
       sodipodi:rx="42.142857"
       sodipodi:ry="42.142857"
       d="m 367.14286,150.21933 a 42.142857,42.142857 0 1 1 -84.28572,0 42.142857,42.142857 0 1 1 84.28572,0 z" />
    <text
       sodipodi:linespacing="125%"
       id="text5847"
       y="304.59708"
       x="321.37979"
       style="font-size:54px;font-style:italic;font-variant:normal;font-weight:bold;font-stretch:normal;text-align:center;line-height:125%;letter-spacing:0px;word-spacing:0px;writing-mode:lr-tb;text-anchor:middle;fill:#000000;fill-opacity:1;stroke:none;font-family:FreeSerif;-inkscape-font-specification:FreeSerif Bold Italic"
       xml:space="preserve"
       inkscape:export-filename="/home/thoniorf/Documents/Projects/Frategp2-pages/assets/drawing2303171.jpg.png"
       inkscape:export-xdpi="90"
       inkscape:export-ydpi="90"><tspan
         sodipodi:role="line"
         id="tspan7969"
         x="321.37979"
         y="304.59708">Fraternità</tspan><tspan
         sodipodi:role="line"
         x="321.37979"
         y="372.09708"
         id="tspan3017"> Giovanni</tspan><tspan
         sodipodi:role="line"
         id="tspan7973"
         x="321.37979"
         y="439.59708">Paolo II</tspan></text>
    <g
       id="g7952"
       transform="translate(-3.8563642,-12.080931)"
       inkscape:export-filename="/home/thoniorf/Documents/Projects/Frategp2-pages/assets/drawing2303171.jpg.png"
       inkscape:export-xdpi="90"
       inkscape:export-ydpi="90">
      <g
         style="fill:#d0d0d0;fill-opacity:1"
         id="g7942"
         transform="matrix(0.92984649,0,0,1.0466699,42.971137,11.064409)">
        <path
           sodipodi:nodetypes="csccccccsc"
           inkscape:connector-curvature="0"
           id="path7944"
           d="m 136.61873,151.57927 c -18.9512,0 -34.31419,14.34435 -34.31419,32.03903 0,8.16122 3.26188,15.60878 8.64289,21.2659 -45.014898,56.47049 -49.389733,91.30612 -5.72933,156.26317 L 103.53662,323.8 c 9.28802,-113.471 85.2194,-132.28482 204.0914,-132.93283 l 31.62714,0.19705 C 288.72104,144.74802 214.71617,151.60664 167.52296,169.70137 161.97252,158.98476 150.2228,151.5793 136.61873,151.5793 z"
           style="fill:#f2f2f2;fill-opacity:1;stroke:none" />
        <path
           style="fill:#f2f2f2;fill-opacity:1;stroke:none"
           d="m 478.63731,521.42975 c 18.9512,0 34.31419,-14.34435 34.31419,-32.03903 0,-8.16122 -3.26188,-15.60878 -8.64289,-21.2659 45.0149,-56.47049 49.38973,-91.30612 5.72933,-156.26317 l 1.1764,24.72046 c -9.28802,113.471 -84.71432,144.91173 -203.58632,145.55974 l -31.62714,-0.19705 c 50.53412,46.3162 124.53899,39.45758 171.7322,21.36285 5.55044,10.71661 17.30016,18.12207 30.90423,18.12207 z"
           id="path7946"
           inkscape:connector-curvature="0"
           sodipodi:nodetypes="csccccccsc" />
        <path
           sodipodi:nodetypes="csccccccsc"
           inkscape:connector-curvature="0"
           id="path7948"
           d="m 478.63731,151.57927 c 18.9512,0 34.31419,14.34435 34.31419,32.03903 0,8.16122 -3.26188,15.60878 -8.64289,21.2659 45.0149,56.47049 47.60402,90.94898 3.94362,155.90603 l 2.96211,-24.36332 C 501.92632,222.95591 426.50002,191.51518 307.62802,190.86717 l -31.62714,0.19705 c 50.53412,-46.3162 124.53899,-39.45758 171.7322,-21.36285 5.55044,-10.71661 17.30016,-18.12207 30.90423,-18.12207 z"
           style="fill:#f2f2f2;fill-opacity:1;stroke:none" />
        <path
           style="fill:#f2f2f2;fill-opacity:1;stroke:none"
           d="m 136.61873,521.42975 c -18.9512,0 -34.31419,-14.34435 -34.31419,-32.03903 0,-8.16122 3.26188,-15.60878 8.64289,-21.2659 C 65.932532,411.65433 61.557697,376.8187 105.2181,311.86165 l -1.1764,24.72046 c 9.28802,113.471 84.71432,144.91173 203.58632,145.55974 l 31.62714,-0.19705 c -50.53412,46.3162 -124.53899,39.45758 -171.7322,21.36285 -5.55044,10.71661 -17.30016,18.12207 -30.90423,18.12207 z"
           id="path7950"
           inkscape:connector-curvature="0"
           sodipodi:nodetypes="csccccccsc" />
      </g>
      <g
         transform="matrix(0.89081202,0,0,1.0027312,54.979234,25.849965)"
         id="g7936">
        <path
           style="fill:#ff1a4b;fill-opacity:1;stroke:none"
           d="m 136.61873,151.57927 c -18.9512,0 -34.31419,14.34435 -34.31419,32.03903 0,8.16122 3.26188,15.60878 8.64289,21.2659 -45.014898,56.47049 -49.389733,91.30612 -5.72933,156.26317 L 103.53662,323.8 c 9.28802,-113.471 85.2194,-132.28482 204.0914,-132.93283 l 31.62714,0.19705 C 288.72104,144.74802 214.71617,151.60664 167.52296,169.70137 161.97252,158.98476 150.2228,151.5793 136.61873,151.5793 z"
           id="path7911"
           inkscape:connector-curvature="0"
           sodipodi:nodetypes="csccccccsc" />
        <path
           sodipodi:nodetypes="csccccccsc"
           inkscape:connector-curvature="0"
           id="use7924"
           d="m 478.63731,521.42975 c 18.9512,0 34.31419,-14.34435 34.31419,-32.03903 0,-8.16122 -3.26188,-15.60878 -8.64289,-21.2659 45.0149,-56.47049 49.38973,-91.30612 5.72933,-156.26317 l 1.1764,24.72046 c -9.28802,113.471 -84.71432,144.91173 -203.58632,145.55974 l -31.62714,-0.19705 c 50.53412,46.3162 124.53899,39.45758 171.7322,21.36285 5.55044,10.71661 17.30016,18.12207 30.90423,18.12207 z"
           style="fill:#fff21a;fill-opacity:1;stroke:none" />
        <path
           style="fill:#d01aff;fill-opacity:1;stroke:none"
           d="m 478.63731,151.57927 c 18.9512,0 34.31419,14.34435 34.31419,32.03903 0,8.16122 -3.26188,15.60878 -8.64289,21.2659 45.0149,56.47049 47.60402,90.94898 3.94362,155.90603 l 2.96211,-24.36332 C 501.92632,222.95591 426.50002,191.51518 307.62802,190.86717 l -31.62714,0.19705 c 50.53412,-46.3162 124.53899,-39.45758 171.7322,-21.36285 5.55044,-10.71661 17.30016,-18.12207 30.90423,-18.12207 z"
           id="use7926"
           inkscape:connector-curvature="0"
           sodipodi:nodetypes="csccccccsc" />
        <path
           sodipodi:nodetypes="csccccccsc"
           inkscape:connector-curvature="0"
           id="use7928"
           d="m 136.61873,521.42975 c -18.9512,0 -34.31419,-14.34435 -34.31419,-32.03903 0,-8.16122 3.26188,-15.60878 8.64289,-21.2659 C 65.932532,411.65433 61.557697,376.8187 105.2181,311.86165 l -1.1764,24.72046 c 9.28802,113.471 84.71432,144.91173 203.58632,145.55974 l 31.62714,-0.19705 c -50.53412,46.3162 -124.53899,39.45758 -171.7322,21.36285 -5.55044,10.71661 -17.30016,18.12207 -30.90423,18.12207 z"
           style="fill:#1aff8a;fill-opacity:1;stroke:none" />
      </g>
    </g>
    <path
       id="path3809"
       style="fill:none;stroke:#3c3c3c;stroke-width:2;stroke-linecap:round;stroke-linejoin:round;stroke-miterlimit:4;stroke-opacity:1;stroke-dasharray:none"
       d="m 364.39773,840.99691 c 0,0 -79.21119,2.84132 -99.96173,5.68264 -20.75054,2.84131 0,5.68263 0,5.68263 0,0 20.75054,-2.84132 0,-5.68263 -20.75054,-2.84132 -99.96084,-5.68264 -99.96084,-5.68264"
       inkscape:connector-curvature="0"
       sodipodi:nodetypes="csasc" />
  </g>
</svg>
